<svg xmlns="http://www.w3.org/2000/svg" width="16" height="20" viewBox="0 0 16 20"><defs><style>.a{fill:#b4c5d6;}</style></defs><g transform="translate(-61 -0.641)"><path class="a" d="M14.154,20h-.271V18.828h.271a.6.6,0,0,0,.615-.586v-1.18H16v1.18A1.805,1.805,0,0,1,14.154,20Zm-1.749,0H10.453V18.828h1.952V20ZM8.977,20H7.024V18.828H8.977V20Zm-3.43,0H3.595V18.828H5.547V20ZM2.118,20H1.846A1.805,1.805,0,0,1,0,18.242V17.081H1.231v1.161a.6.6,0,0,0,.615.586h.272V20Zm-.887-4.323H0V13.816H1.231v1.859ZM16,15.655H14.769V13.8H16v1.858ZM1.231,12.41H0V10.55H1.231v1.859ZM16,12.39H14.769V10.531H16v1.858ZM1.231,9.145H0V7.285H1.231V9.144ZM16,9.124H14.769V7.265H16V9.123ZM1.231,5.879H0V4.018H1.231V5.878ZM16,5.86H11.692A1.805,1.805,0,0,1,9.846,4.1V1.172H7.762V0h2.7A.635.635,0,0,1,10.9.172l1.9,1.811-.865.832L11.077,2V4.1a.6.6,0,0,0,.615.586H13.9l-.918-.874.865-.832,1.973,1.878A.579.579,0,0,1,16,5.273v.586ZM1.231,2.614H0V1.758A1.805,1.805,0,0,1,1.846,0h1.01V1.172H1.846a.6.6,0,0,0-.615.586v.855ZM6.285,1.173H4.333V0H6.285V1.172Z" transform="translate(61 0.641)"/><path class="a" d="M158.844,272H151.6a.6.6,0,0,0,0,1.207h7.24a.6.6,0,0,0,0-1.207Z" transform="translate(-86.076 -262.417)"/><path class="a" d="M158.844,332H151.6a.6.6,0,0,0,0,1.207h7.24a.6.6,0,0,0,0-1.207Z" transform="translate(-86.076 -319.079)"/><path class="a" d="M156.43,392H151.6a.6.6,0,0,0,0,1.207h4.827a.6.6,0,1,0,0-1.207Z" transform="translate(-86.076 -375.861)"/></g></svg>