<svg xmlns="http://www.w3.org/2000/svg" width="24" height="24" viewBox="0 0 24 24"><defs><style>.a{fill:rgba(226,232,235,0.48);stroke:#3d5b82;}.b{fill:none;}.c{fill:#3d5b82;}.d{stroke:none;}</style></defs><g transform="translate(-259.932)"><g class="a" transform="translate(259.932)"><path class="d" d="M0,0H22a2,2,0,0,1,2,2V22a2,2,0,0,1-2,2H0a0,0,0,0,1,0,0V0A0,0,0,0,1,0,0Z"/><path class="b" d="M1,.5H22A1.5,1.5,0,0,1,23.5,2V22A1.5,1.5,0,0,1,22,23.5H1A.5.5,0,0,1,.5,23V1A.5.5,0,0,1,1,.5Z"/></g><g transform="translate(264 4)"><path class="b" d="M0,0H16V16H0Z"/><path class="c" d="M13.163,14.75l.936-.938-2.263-2.269-.936.938ZM6.858,6.494H9.181v3.719l-3.591,3.6.936.938,3.983-3.992V6.494h2.323L9.845,3.5Z" transform="translate(-1.845 -1.155)"/></g></g></svg>