<svg xmlns="http://www.w3.org/2000/svg" width="24" height="24" viewBox="0 0 24 24"><defs><style>.a{fill:none;}.b{fill:#91A9C9;}</style></defs><rect class="a" width="24" height="24"/><rect class="b" width="4" height="4" transform="translate(10 4)"/><rect class="b" width="4" height="4" transform="translate(4 16)"/><rect class="b" width="4" height="4" transform="translate(4 10)"/><rect class="b" width="4" height="4" transform="translate(4 4)"/><path class="b" d="M14,12.42V10H10v4h2.42Z"/><path class="b" d="M20.88,11.29l-1.17-1.17a.41.41,0,0,0-.58,0l-.88.88L20,12.75l.88-.88A.41.41,0,0,0,20.88,11.29Z"/><path class="b" d="M11,18.25V20h1.75l6.67-6.67-1.75-1.75Z"/><rect class="b" width="4" height="4" transform="translate(16 4)"/></svg>